<svg width="256" height="256" viewBox="0 0 256 256" fill="none" xmlns="http://www.w3.org/2000/svg">
<path d="M250.5 108.5C250.5 179.192 221.192 252.5 150.5 252.5C79.8075 252.5 8 206.692 8 136C8 65.3075 65.3075 8 136 8C206.692 8 250.5 37.8075 250.5 108.5Z" fill="black"/>
<path fill-rule="evenodd" clip-rule="evenodd" d="M132.158 43.9188C136.548 46.6939 142.086 52.9831 142.876 56.0902C144.212 61.3491 142.113 64.4712 126.019 81.1584C114.416 93.1913 106.065 102.317 103.063 106.248C101.684 108.052 101.233 109.266 101.519 110.401C102.39 113.851 116.265 126.294 128.639 134.721C135.354 139.295 138.705 142.609 139.401 145.364C139.946 147.524 138.704 151.827 136.56 155.204C133.615 159.843 125.468 165.403 121.616 165.403C119.083 165.403 113.323 159.954 104.038 148.777C99.9676 143.877 94.7313 138.523 91.1653 135.616C82.4576 128.518 71.6134 117.861 69.1313 113.962C66.5965 109.98 66.3195 106.282 68.3175 103.096C69.0511 101.927 74.9703 95.9077 81.4709 89.7201C94.7423 77.0892 100.233 70.815 109.1 58.1513C116.006 48.288 120.035 43.4927 122.123 42.6526C125.123 41.4458 129.025 41.9381 132.158 43.9188ZM145.354 90.1299C146.561 90.7306 152.176 95.8702 157.833 101.552C163.489 107.234 172.116 115.257 177.003 119.381C198.764 137.746 200 139.073 200 144.072C200 145.728 199.664 147.708 199.253 148.471C198.842 149.235 190.73 157.576 181.226 167.007C165.517 182.595 160.535 188.23 150.088 202.222C142.519 212.362 135.608 213.659 127.767 206.414C121.501 200.625 120.13 195.351 123.433 189.746C125.9 185.56 136.555 173.929 144.796 166.426C152.005 159.863 165.718 145.302 165.718 144.211C165.718 142.037 142.415 122.529 134.835 118.357C132.45 117.044 129.438 114.967 128.141 113.74C125.929 111.647 125.801 111.288 126.08 107.944C126.423 103.842 128.96 97.9205 131.812 94.5659C133.788 92.2422 139.622 89.0574 141.926 89.0451C142.604 89.041 144.147 89.5299 145.354 90.1299Z" fill="white"/>
</svg>
