<svg width="502" height="116" viewBox="0 0 502 116" fill="none" xmlns="http://www.w3.org/2000/svg">
<path d="M39.4511 36.2604L3.98162 4.4286L0.0390625 0.887207V0.890599V22.3389V67.8957H14.7464V35.5352L50.2431 67.3941L54.1585 70.9084V70.905V49.4568V3.90332H39.4511V36.2604Z" fill="white"/>
<path d="M139.001 3.90332C130.193 3.90332 122.583 7.0821 116.395 13.3346C110.123 19.5939 106.941 27.185 106.941 35.8944C106.941 44.6039 110.123 52.195 116.395 58.4543C122.667 64.7136 130.274 67.8855 139.001 67.8855C147.729 67.8855 155.335 64.7102 161.587 58.4746C167.924 52.3102 171.136 44.7123 171.136 35.891C171.136 27.1511 167.931 19.56 161.604 13.3244C155.332 7.07533 147.729 3.90332 139.001 3.90332ZM156.283 35.8978C156.283 40.7439 154.626 44.7564 151.216 48.1588C147.858 51.5138 143.861 53.1439 139.005 53.1439C134.166 53.1439 130.033 51.4664 126.719 48.1588C123.404 44.8513 121.723 40.727 121.723 35.8978C121.723 31.0517 123.357 27.0664 126.719 23.7114C130.128 20.3089 134.145 18.6552 139.005 18.6552C143.813 18.6552 147.807 20.3089 151.216 23.7114C154.626 27.1138 156.283 31.0992 156.283 35.8978Z" fill="white"/>
<path d="M265.594 38.5581C268.202 34.8981 269.526 30.6688 269.526 25.9921C269.526 20.0141 267.349 14.7647 263.037 10.3795C258.731 6.08238 253.467 3.90332 247.392 3.90332H217.176L224.558 16.6117L226.603 18.6552H247.389C249.406 18.6552 251.097 19.3668 252.564 20.8274L252.598 20.8579C254.112 22.3152 254.819 23.9452 254.819 25.9887C254.819 28.1068 254.092 29.8317 252.598 31.2686L252.564 31.2991C251.097 32.7631 249.406 33.4748 247.412 33.4748L234.349 33.3663L254.364 67.8923H271.278L258.343 45.2986C261.176 43.6923 263.61 41.4285 265.594 38.5581Z" fill="white"/>
<path d="M487.257 3.90332V28.5202H462.477V3.90332H447.773V39.8527V67.8923H462.477V43.272H487.257V67.8923H501.964V39.8527V3.90332H487.257Z" fill="white"/>
<path d="M354.525 3.90332H334.707V18.6552H354.413V67.8923H354.525H369.192H369.307V18.6552H389.013V3.90332H369.192H354.525Z" fill="white"/>
<path d="M220.035 114.778L209.09 114.774L209.097 99.6802H212.323L212.319 111.911L220.038 111.914L220.035 114.778Z" fill="white"/>
<path d="M234.405 111.873L233.223 114.781H229.797L236.32 99.6021H239.346L245.835 114.788H242.433L241.254 111.88L234.405 111.873ZM237.811 103.442L235.583 108.969L240.052 108.972L237.811 103.442Z" fill="white"/>
<path d="M269.73 110.646C269.73 113.134 267.659 114.798 264.3 114.794L256.605 114.791L256.612 99.6968L263.951 99.7002C267.177 99.7002 269.065 101.212 269.065 103.675C269.065 105.139 268.24 106.515 266.949 106.983C268.864 107.383 269.734 108.935 269.73 110.646ZM264.083 112.019C265.795 112.019 266.576 111.199 266.576 110.243C266.576 109.199 265.642 108.667 264.175 108.667H259.838V112.019H264.083ZM259.835 105.936H263.526C265.149 105.936 266.039 105.204 266.039 104.116C266.039 103.052 265.194 102.472 263.526 102.472H259.835V105.936Z" fill="white"/>
<path d="M292.911 104.33H289.729C289.529 102.998 288.683 102.11 286.859 102.11C285.28 102.11 284.234 102.774 284.234 103.95C284.234 104.97 284.992 105.414 286.37 105.682L288.238 106.061C291.128 106.685 292.843 107.793 292.84 110.325C292.84 113.208 290.459 115.116 286.832 115.116C283.185 115.116 280.472 113.181 280.207 109.809H283.409C283.654 111.341 284.988 112.297 287.012 112.297C288.615 112.297 289.505 111.697 289.505 110.677C289.505 110.057 289.148 109.413 287.617 109.121L285.148 108.654C282.146 108.054 280.835 106.566 280.835 104.214C280.835 101.307 283.151 99.375 286.622 99.3784C289.155 99.3784 292.558 100.422 292.911 104.33Z" fill="white"/>
</svg>
